<svg width="15" height="16" viewBox="0 0 15 16" fill="none" xmlns="http://www.w3.org/2000/svg">
<mask id="path-1-inside-1_207_1623" fill="white">
<path d="M0 4.22168C0 3.6694 0.447715 3.22168 1 3.22168H6.59494C7.14722 3.22168 7.59494 3.66939 7.59494 4.22168V14.9998C7.59494 15.5521 7.14722 15.9998 6.59494 15.9998H1C0.447715 15.9998 0 15.5521 0 14.9998V4.22168Z"/>
</mask>
<path d="M0 4.22168C0 3.6694 0.447715 3.22168 1 3.22168H6.59494C7.14722 3.22168 7.59494 3.66939 7.59494 4.22168V14.9998C7.59494 15.5521 7.14722 15.9998 6.59494 15.9998H1C0.447715 15.9998 0 15.5521 0 14.9998V4.22168Z" fill="#90BBD8"/>
<path d="M-0.3 4.22168C-0.3 3.50371 0.28203 2.92168 1 2.92168H6.29494C7.01291 2.92168 7.59494 3.50371 7.59494 4.22168V4.22168C7.59494 3.83508 7.14722 3.52168 6.59494 3.52168H1C0.613401 3.52168 0.3 3.83508 0.3 4.22168L-0.3 4.22168ZM7.59494 14.9998C7.59494 15.7178 7.01291 16.2998 6.29494 16.2998H1C0.28203 16.2998 -0.3 15.7178 -0.3 14.9998L0.3 14.9998C0.3 15.3864 0.613401 15.6998 1 15.6998H6.59494C7.14722 15.6998 7.59494 15.3864 7.59494 14.9998V14.9998ZM1 16.2998C0.28203 16.2998 -0.3 15.7178 -0.3 14.9998V4.22168C-0.3 3.50371 0.28203 2.92168 1 2.92168L1 3.52168C0.613401 3.52168 0.3 3.83508 0.3 4.22168V14.9998C0.3 15.3864 0.613401 15.6998 1 15.6998L1 16.2998ZM7.59494 3.22168V15.9998V3.22168Z" fill="#90BBD8" mask="url(#path-1-inside-1_207_1623)"/>
<mask id="path-3-inside-2_207_1623" fill="white">
<path d="M15 4.22168C15 3.6694 14.5523 3.22168 14 3.22168H8.40506C7.85278 3.22168 7.40506 3.66939 7.40506 4.22168V14.9998C7.40506 15.5521 7.85278 15.9998 8.40506 15.9998H14C14.5523 15.9998 15 15.5521 15 14.9998V4.22168Z"/>
</mask>
<path d="M15 4.22168C15 3.6694 14.5523 3.22168 14 3.22168H8.40506C7.85278 3.22168 7.40506 3.66939 7.40506 4.22168V14.9998C7.40506 15.5521 7.85278 15.9998 8.40506 15.9998H14C14.5523 15.9998 15 15.5521 15 14.9998V4.22168Z" fill="#90BBD8"/>
<path d="M15.3 4.22168C15.3 3.50371 14.718 2.92168 14 2.92168H8.70506C7.98709 2.92168 7.40506 3.50371 7.40506 4.22168V4.22168C7.40506 3.83508 7.85278 3.52168 8.40506 3.52168H14C14.3866 3.52168 14.7 3.83508 14.7 4.22168L15.3 4.22168ZM7.40506 14.9998C7.40506 15.7178 7.98709 16.2998 8.70506 16.2998H14C14.718 16.2998 15.3 15.7178 15.3 14.9998L14.7 14.9998C14.7 15.3864 14.3866 15.6998 14 15.6998H8.40506C7.85278 15.6998 7.40506 15.3864 7.40506 14.9998V14.9998ZM14 16.2998C14.718 16.2998 15.3 15.7178 15.3 14.9998V4.22168C15.3 3.50371 14.718 2.92168 14 2.92168L14 3.52168C14.3866 3.52168 14.7 3.83508 14.7 4.22168V14.9998C14.7 15.3864 14.3866 15.6998 14 15.6998L14 16.2998ZM7.40506 3.22168V15.9998V3.22168Z" fill="#90BBD8" mask="url(#path-3-inside-2_207_1623)"/>
<path d="M1.625 1.90039H6.625C7.09444 1.90039 7.47461 2.28056 7.47461 2.75V14.6621C7.47429 15.2804 6.81952 15.7105 6.20117 15.5098C4.91469 15.0917 3.59852 14.952 1.64551 14.9521C1.16624 14.952 0.775391 14.5675 0.775391 14.0928V2.75C0.775391 2.28056 1.15556 1.90039 1.625 1.90039Z" fill="#F9F6F1" stroke="#90BBD8" stroke-width="0.3"/>
<path d="M13.625 1.90039H8.625C8.15556 1.90039 7.77539 2.28056 7.77539 2.75V14.7803C7.77545 15.3761 8.37895 15.7946 8.96094 15.6064C10.5125 15.1048 11.8027 14.9272 13.5869 14.9385C14.0745 14.9416 14.4746 14.554 14.4746 14.0732V2.75C14.4746 2.28056 14.0944 1.90039 13.625 1.90039Z" fill="#F9F6F1" stroke="#90BBD8" stroke-width="0.3"/>
<path d="M4.26926 1.15527C4.89126 1.17214 5.37269 1.22531 5.81711 1.35938C6.25992 1.49299 6.67428 1.70991 7.15988 2.06152C7.36341 2.2089 7.48019 2.45224 7.48019 2.71191V14.5723C7.48019 15.1956 6.84048 15.5899 6.3093 15.2988C5.89988 15.0745 5.5412 14.8617 5.20871 14.665C4.8771 14.4689 4.57002 14.287 4.2673 14.127C3.65891 13.8052 3.06417 13.5686 2.29953 13.459C1.81228 13.3892 1.43039 13.005 1.43039 12.541V2.03711C1.4306 1.60308 1.75563 1.24403 2.18234 1.21387C2.7608 1.17309 3.53931 1.1355 4.26926 1.15527Z" fill="#F9F6F1" stroke="#90BBD8" stroke-width="0.3"/>
<path d="M12.928 0.900391H10.7835C9.81751 1.01686 9.2852 1.13155 8.91242 1.27246C8.54219 1.41242 8.32438 1.57874 7.97688 1.82227C7.73174 1.99405 7.58039 2.26883 7.58039 2.56055V14.751C7.58039 15.3619 8.19662 15.7572 8.72297 15.4883C9.67357 15.0019 10.2968 14.5759 10.9105 14.2266C11.5205 13.8793 12.098 13.6235 12.9114 13.5107C13.3984 13.4431 13.7796 13.0604 13.7796 12.5967V1.75C13.7796 1.281 13.3978 0.900456 12.928 0.900391Z" fill="#F9F6F1" stroke="#90BBD8" stroke-width="0.3"/>
</svg>
