<svg width="18" height="18" viewBox="0 0 18 18" fill="none" xmlns="http://www.w3.org/2000/svg">
<path d="M6 13.05C5.3 13.05 4.70833 12.8325 4.225 12.3975C3.74167 11.9625 3.5 11.43 3.5 10.8C3.5 10.17 3.74167 9.6375 4.225 9.2025C4.70833 8.7675 5.3 8.55 6 8.55C6.7 8.55 7.29167 8.7675 7.775 9.2025C8.25833 9.6375 8.5 10.17 8.5 10.8C8.5 11.43 8.25833 11.9625 7.775 12.3975C7.29167 12.8325 6.7 13.05 6 13.05ZM2 18C1.45 18 0.979167 17.8237 0.5875 17.4712C0.195833 17.1187 0 16.695 0 16.2V3.6C0 3.105 0.195833 2.68125 0.5875 2.32875C0.979167 1.97625 1.45 1.8 2 1.8H3V0H5V1.8H13V0H15V1.8H16C16.55 1.8 17.0208 1.97625 17.4125 2.32875C17.8042 2.68125 18 3.105 18 3.6V16.2C18 16.695 17.8042 17.1187 17.4125 17.4712C17.0208 17.8237 16.55 18 16 18H2ZM2 16.2H16V7.2H2V16.2Z" fill="#DFB6AF"/>
</svg>
