<svg width="18" height="18" viewBox="0 0 18 18" fill="none" xmlns="http://www.w3.org/2000/svg">
<path d="M11.0477 10.9507L16 16.0001" stroke="#FFD3B6" stroke-width="3" stroke-linecap="round"/>
<path d="M2.72518 12.6036C5.40155 15.0983 9.47668 14.6447 10.835 13.9643C12.7038 13.4788 14.8261 11.1855 15.1365 9.20178C15.447 7.2181 15.1365 5.34653 14.0046 3.75905C12.6498 1.85907 9.46431 0.780362 7.21271 1.03763C5.16387 1.27173 3.75267 2.1509 2.45841 3.75905C0.910633 5.68221 0.0488049 10.109 2.72518 12.6036Z" fill="#FFE0E1"/>
<path d="M10.835 13.9643C9.47668 14.6447 5.40155 15.0983 2.72518 12.6036C0.0488049 10.109 0.910633 5.68221 2.45841 3.75905C3.75266 2.1509 5.16387 1.27173 7.21271 1.03763C9.46431 0.780362 12.6498 1.85907 14.0046 3.75905C15.1365 5.34653 15.447 7.2181 15.1365 9.20178C14.8261 11.1855 12.7038 13.4788 10.835 13.9643ZM10.835 13.9643C8.57104 14.5526 6.08067 13.0572 6.08067 13.0572C6.08067 13.0572 4.53356 12.0817 4.04318 10.5625C3.5872 9.14988 3.67438 6.39632 4.72236 5.34654C5.85434 4.21261 6.86171 3.98861 8.11829 3.98861C11.0615 3.98861 12.109 5.83103 12.4198 7.3876C12.6462 8.52152 12.6893 9.37451 11.7406 10.5625C10.835 11.6965 9.4766 11.6964 8.34462 11.4696C7.38704 11.2778 6.50118 10.3358 6.30713 8.97509C6.08074 7.3876 7.4994 6.56903 8.11829 6.48046C9.70306 6.25368 10.1558 7.84108 9.70299 9.20178" stroke="#EB4C4E" stroke-linecap="round" stroke-linejoin="round"/>
</svg>
