<svg width="15" height="16" viewBox="0 0 15 16" fill="none" xmlns="http://www.w3.org/2000/svg">
<path d="M13.6409 8.55371C15.6621 5.3983 13.7829 0.594919 13.7829 0.594919C13.7829 0.594919 6.75312 1.56494 4.73198 4.72036C2.71084 7.87578 3.21166 9.68572 5.69133 10.8295C8.2398 12.005 11.6198 11.7091 13.6409 8.55371Z" fill="#4BB359"/>
<path d="M8.95663 3.7207L9.85032 5.25245L12.1079 4.66624" stroke="white" stroke-opacity="0.25" stroke-width="0.5" stroke-linecap="round" stroke-linejoin="round"/>
<path d="M4.52351 7.10547L7.25056 9.40713L11.9062 8.71412" stroke="white" stroke-opacity="0.25" stroke-width="0.5" stroke-linecap="round" stroke-linejoin="round"/>
<path d="M6.73032 5.24121L8.52798 7.33841L11.8443 6.88822" stroke="white" stroke-opacity="0.25" stroke-width="0.5" stroke-linecap="round" stroke-linejoin="round"/>
<path d="M11.2966 3.06104L5.54648 11.7604" stroke="#79C484" stroke-width="0.5" stroke-linecap="round" stroke-linejoin="round"/>
<path d="M1.47974 11.4855C-0.541382 8.33009 0.964595 2.91193 0.964595 2.91193C0.964595 2.91193 7.80454 3.97612 9.82566 7.13157C11.8468 10.287 11.5135 12.1951 9.42927 13.7614C7.19352 15.4415 3.50087 14.641 1.47974 11.4855Z" fill="#12671D"/>
<path d="M5.00981 5.58252L4.42456 7.83567L2.24445 7.00652" stroke="white" stroke-opacity="0.25" stroke-width="0.5" stroke-linecap="round" stroke-linejoin="round"/>
<path d="M9.82567 9.26025L7.87006 12.3395L3.2145 11.6465" stroke="white" stroke-opacity="0.25" stroke-width="0.5" stroke-linecap="round" stroke-linejoin="round"/>
<path d="M7.10242 6.93896L5.62532 9.67569L2.2988 9.30875" stroke="white" stroke-opacity="0.25" stroke-width="0.5" stroke-linecap="round" stroke-linejoin="round"/>
<path d="M2.65242 5.45703L9.64082 15.0004" stroke="#4D8D56" stroke-width="0.5" stroke-linecap="round" stroke-linejoin="round"/>
</svg>
