<svg width="20" height="19" viewBox="0 0 20 19" fill="none" xmlns="http://www.w3.org/2000/svg">
<path d="M1.89453 5.35938C0.791016 5.35938 0.234375 4.70508 0.234375 3.61133V2.72266C0.234375 1.62891 0.849609 0.974609 1.89453 0.974609H18.0957C19.1992 0.974609 19.7559 1.62891 19.7559 2.72266V3.61133C19.7559 4.70508 19.1992 5.35938 18.0957 5.35938H1.89453ZM4.63867 18.9531C2.71484 18.9531 1.68945 17.9668 1.68945 16.043V6.69727H18.3008V16.043C18.3008 17.957 17.2754 18.9531 15.3516 18.9531H4.63867ZM6.77734 10.2227H13.2227C13.6328 10.2227 13.9258 9.93945 13.9258 9.50977V9.20703C13.9258 8.77734 13.6328 8.50391 13.2227 8.50391H6.77734C6.36719 8.50391 6.08398 8.77734 6.08398 9.20703V9.50977C6.08398 9.93945 6.36719 10.2227 6.77734 10.2227Z" fill="#4B3F2F"/>
</svg>
